<?xml version="1.0" standalone="no"?>
<!DOCTYPE svg PUBLIC "-//W3C//DTD SVG 1.1//EN" "http://www.w3.org/Graphics/SVG/1.1/DTD/svg11.dtd" >
<svg xmlns="http://www.w3.org/2000/svg">
<metadata>Generated by IcoMoon</metadata>
<defs>
<font id="mp-font" horiz-adv-x="1024">
<font-face units-per-em="1024" ascent="960" descent="-64" />
<missing-glyph horiz-adv-x="1024" />
<glyph unicode="&#x20;" horiz-adv-x="512" d="" />
<glyph unicode="&#x31;" glyph-name="link" d="M954 886l-4 4c-94 94-248 94-342 0l-220-218c-94-94-94-248 0-344l4-4c8-6 18-14 26-20l80 80c-10 4-18 12-26 20l-4 4c-52 50-52 134 0 184l218 218c50 52 134 52 184 0l4-4c52-50 52-134 0-184l-98-100c18-42 26-86 24-132l154 154c94 94 94 248 0 342zM632 572c-8 6-18 14-26 20l-80-80c10-4 18-12 26-20l4-4c52-50 52-134 0-184l-218-218c-50-52-134-52-184 0l-4 4c-52 50-52 134 0 184l98 100c-18 42-26 86-24 132l-154-154c-94-94-94-248 0-342l4-4c94-94 248-94 342 0l220 218c94 94 94 248 0 344z" />
<glyph unicode="&#x41;" glyph-name="mp-glyph" d="M422 500l48 26 222 130v206l-164 94c-8 6-24 6-32 0l-416-240c-10-4-18-18-18-28v-480c0-10 8-24 18-28l342-198zM944 716l-162 94v-206l-26-16-244-140v-512c6 0 12 2 16 4l416 240c10 4 18 18 18 28v480c0 10-8 24-18 28z" />
<glyph unicode="&#x48;" glyph-name="close" d="M1014 138c0 0 0 0 0 0l-310 310 310 310c0 0 0 0 0 0 4 4 6 8 8 12 4 12 2 24-8 34l-146 146c-10 10-22 12-34 8-4-2-8-4-12-8 0 0 0 0 0 0l-310-310-310 310c0 0 0 0 0 0-4 4-8 6-12 8-12 4-24 2-34-8l-146-146c-10-10-12-22-8-34 2-4 4-8 8-12 0 0 0 0 0 0l310-310-310-310c0 0 0 0 0 0-4-4-6-8-8-12-4-12-2-24 8-34l146-146c10-10 22-12 34-8 4 2 8 4 12 8 0 0 0 0 0 0l310 310 310-310c0 0 0 0 0 0 4-4 8-6 12-8 12-4 24-2 34 8l146 146c10 10 12 22 8 34-2 4-4 8-8 12z" />
<glyph unicode="&#x66;" glyph-name="twitter" d="M1024 766c-38-18-78-28-120-34 42 26 76 68 92 116-40-24-86-40-134-50-38 40-92 66-154 66-116 0-210-94-210-210 0-16 2-32 6-48-174 8-330 92-432 220-18-32-30-68-30-106 0-72 38-138 94-174-34 0-66 10-94 26 0-2 0-2 0-4 0-100 72-186 168-206-18-4-36-6-56-6-14 0-26 0-40 4 28-84 106-146 198-146-72-58-164-90-262-90-16 0-34 0-50 2 92-60 204-94 322-94 386 0 598 320 598 598 0 8 0 18 0 26 40 30 76 68 104 110z" />
<glyph unicode="&#x67;" glyph-name="facebook" d="M576-64h-192v512h-128v176h128v104c0 144 38 232 208 232h142v-176h-88c-66 0-70-26-70-72v-88h158l-18-176h-140z" />
<glyph unicode="&#xe600;" glyph-name="dollhouse" d="M1022.987 662.026l-2.069 6.129-4.096 5.114-4.096 4.1-289.495 172.028-191.28 107.528c-8.192 4.1-17.397 4.1-25.588 0l-288.482-160.785-4.096-3.043-5.109-5.114-3.082-6.171-1.013-7.143v-181.285l-192.335-109.557c-7.136-4.1-12.245-12.3-12.245-21.514v-334.842c0-9.214 5.109-17.414 13.301-21.514l308.919-167.928 8.192-2.029 7.178 1.014 7.136 3.043 666.987 384.041c8.192 4.1 12.287 12.258 12.287 21.472v310.284l-1.013 3.086v3.086zM243.47 556.527v0l136.049 76.8v-186.357l-134.022-80.9-167.76 96.243 165.733 94.214zM947.277 656.869l-265.976-146.414-141.201 85c2.069 4.1 4.096 8.2 4.096 13.314v283.656l153.488-86.014 249.592-149.542zM493.062 892.425v-282.642c0-4.1 1.013-8.2 3.082-12.3l-65.491-35.843v104.485l-1.013 7.143v3.086c0 9.214-5.109 17.414-13.301 21.514l-136.049 75.743 212.772 118.813zM255.715 731.64l97.202-54.271-97.202-56.3v110.571zM53.161 418.312l252.675-145.442v-268.271l-254.702 137.2 2.027 276.513zM642.412 170.499l-286.413-164.885v266.242l615.81 341.013v-252.928l-235.278-136.228-94.12-53.215z" />
<glyph unicode="&#xe601;" glyph-name="dpad-down" d="M68.302 704l-68.302-69.235 512-421.432 512 421.432-68.302 69.235-443.698-352.148-443.698 352.148z" />
<glyph unicode="&#xe602;" glyph-name="dpad-right" d="M266.667 4.302l69.235-68.302 421.432 512-421.432 512-69.235-68.302 352.148-443.698-352.148-443.698z" />
<glyph unicode="&#xe603;" glyph-name="fullscreen_exit" d="M284.444 618.667h56.889v341.333h-113.778v-227.556h-227.556v-113.778h284.444zM284.444 277.333h56.889v-341.333h-113.778v227.556h-227.556v113.778h284.444zM739.556 618.667h-56.889v341.333h113.778v-227.556h227.556v-113.778h-284.444zM739.556 277.333h-56.889v-341.333h113.778v227.556h227.556v113.778h-284.444z" />
<glyph unicode="&#xe604;" glyph-name="fullscreen" d="M56.889 960h-56.889v-341.333h113.778v227.556h227.556v113.778h-284.444zM56.889-64h-56.889v341.333h113.778v-227.556h227.556v-113.778h-284.444zM967.111 960h56.889v-341.333h-113.778v227.556h-227.556v113.778h284.444zM967.111-64h56.889v341.333h-113.778v-227.556h-227.556v-113.778h284.444z" />
<glyph unicode="&#xe605;" glyph-name="help" d="M512 960c-282.767 0-512-229.233-512-512s229.233-512 512-512c282.788 0 512 229.233 512 512s-229.212 512-512 512v0zM512-21.333c-258.786 0-469.333 210.527-469.333 469.333 0 258.786 210.547 469.333 469.333 469.333 258.807 0 469.333-210.547 469.333-469.333 0-258.807-210.527-469.333-469.333-469.333v0zM505.173 708.096c-101.918 0-158.82-62.986-159.543-162.756h44.273c-1.385 72.383 36.543 125.51 113.162 125.51 54.794 0 100.493-38.651 100.493-94.871 0-36.543-19.697-66.058-45.699-90.674-53.389-49.554-68.367-72.845-71.058-140.75h44.855c2.63 61.56 1.265 60.316 55.015 114.045 35.84 33.732 61.139 67.504 61.139 119.507 0 81.498-64.653 129.988-142.637 129.988zM512 277.333c-23.531 0-42.667-19.119-42.667-42.656 0-23.601 19.136-42.677 42.667-42.677 23.573 0 42.667 19.077 42.667 42.677 0 23.537-19.093 42.656-42.667 42.656z" />
<glyph unicode="&#xe606;" glyph-name="inside" d="M277.306 960v-1022.668zM298.611 960v-1022.668zM319.917 960v-1022.668zM341.222 960v-1022.668zM362.528 960v-1022.668zM383.834 960v-1022.668zM405.139 960v-1022.668zM426.445 960v-1022.668zM447.75 960v-1022.668zM469.056 960v-1022.668zM490.362 960v-1022.668zM511.667 960v-1022.668zM532.973 960v-1022.668zM554.278 960v-1022.668zM575.584 960v-1022.668zM596.889 960v-1022.668zM618.195 960v-1022.668zM639.501 960v-1022.668zM660.806 960v-1022.668zM682.112 960v-1022.668zM703.417 960v-1022.668zM724.723 960v-1022.668zM746.029 960v-1022.668zM767.334 960v-1022.668zM788.64 960v-1022.668zM256 938.694h551.282zM256 917.389h551.282zM256 896.083h551.282zM256 874.778h551.282zM256 853.472h551.282zM256 832.166h551.282zM256 810.861h551.282zM256 789.555h551.282zM256 768.25h551.282zM256 746.944h551.282zM256 725.638h551.282zM256 704.333h551.282zM256 683.027h551.282zM256 661.722h551.282zM256 640.416h551.282zM256 619.111h551.282zM256 597.805h551.282zM256 576.499h551.282zM256 555.194h551.282zM256 533.888h551.282zM256 512.583h551.282zM256 491.277h551.282zM256 469.971h551.282zM256 448.666h551.282zM256 427.36h551.282zM256 406.055h551.282zM256 384.749h551.282zM256 363.443h551.282zM256 342.138h551.282zM256 320.832h551.282zM256 299.527h551.282zM256 278.221h551.282zM256 256.915h551.282zM256 235.61h551.282zM256 214.304h551.282zM256 192.999h551.282zM256 171.693h551.282zM256 150.388h551.282zM256 129.082h551.282zM256 107.776h551.282zM256 86.471h551.282zM256 65.165h551.282zM256 43.86h551.282zM256 22.554h551.282zM256 1.248h551.282zM256-20.057h551.282zM256-41.363h551.282zM429.546 647.966l-57.883-256.671-113.363-388.205c-17.879-61.259 73.989-88.087 91.87-26.829l103.578 354.678 145.048-148.099 37.925-206.307c4.772-25.994 29.725-43.192 55.718-38.418 25.991 4.772 43.192 29.725 38.418 55.719l-40.447 220.028c-1.722 9.357-6.187 17.981-12.833 24.784l-141.486 144.846 42.917 195.533 30.374-67.684c3.938-8.761 11.608-15.289 20.897-17.761l137.241-36.527c17.028-4.534 34.499 5.591 39.032 22.617s-5.59 34.496-22.619 39.033l-122.736 33.032-67.275 149.907c-4.057 9.051-11.829 15.288-20.709 17.709l-0.101 0.272-2.266 0.274c-1.414 0.274-2.864 0.461-4.312 0.527l-94.562 11.711c-4.075 1.38-8.437 1.925-12.783 1.585l-1.16 0.136-0.153-0.272c-3.903-0.478-7.773-1.688-11.421-3.682l-135.623-74.127c-7.703-4.208-13.329-11.404-15.562-19.909l-37.719-143.769c-4.466-17.046 5.726-34.48 22.77-38.947s34.482 5.726 38.945 22.77l34.821 130.799 75.459 41.245zM544.615 768.573c52.855 0 95.706 42.851 95.706 95.703s-42.851 95.722-95.706 95.722c-52.855 0-95.706-42.85-95.706-95.703s42.851-95.722 95.706-95.722v0z" />
<glyph unicode="&#xe607;" glyph-name="more" d="M640 832c0-70.692-57.308-128-128-128s-128 57.308-128 128c0 70.692 57.308 128 128 128s128-57.308 128-128zM640 448c0-70.692-57.308-128-128-128s-128 57.308-128 128c0 70.692 57.308 128 128 128s128-57.308 128-128zM640 64c0-70.692-57.308-128-128-128s-128 57.308-128 128c0 70.692 57.308 128 128 128s128-57.308 128-128z" />
<glyph unicode="&#xe608;" glyph-name="pause" d="M256 960h118.154v-1024h-118.154v1024zM649.846 960h118.154v-1024h-118.154v1024z" />
<glyph unicode="&#xe609;" glyph-name="pin" d="M512.006 960c-188.512 0-341.339-152.861-341.339-341.339 0-62.257 16.759-120.435 45.857-170.678l295.465-511.983 295.482 511.983c29.098 50.243 45.84 108.421 45.84 170.678 0 188.478-152.827 341.339-341.305 341.339v0zM511.951 483.934c-74.458 0-134.865 60.327-134.865 134.811 0 74.377 60.408 134.784 134.865 134.784s134.811-60.408 134.811-134.784c0-74.485-60.354-134.811-134.811-134.811v0z" />
<glyph unicode="&#xe60a;" glyph-name="play" d="M128-64v1024l768-512-768-512z" />
<glyph unicode="&#xe60b;" glyph-name="share" d="M720.587 802.462c0-15.104 2.181-29.676 5.992-43.5l-443.514-193.044c-26.207 47.183-75.19 79.006-131.378 79.006-83.761 0-151.688-70.558-151.688-157.538 0-87.001 67.927-157.538 151.688-157.538 43.9 0 83.344 19.476 111.049 50.432l285.777-213.287c-11.169-21.937-17.56-46.887-17.56-73.433 0-87.020 67.946-157.558 151.707-157.558 83.78 0 151.707 70.538 151.707 157.558 0 86.981-67.927 157.519-151.707 157.519-44.545 0-84.519-20.106-112.263-51.87l-285.398 212.953c11.738 22.351 18.394 47.97 18.394 75.225 0 14.631-2.067 28.751-5.651 42.22l443.836 193.182c26.359-46.533 74.962-77.883 130.714-77.883 83.78 0 151.707 70.538 151.707 157.558 0 86.981-67.927 157.538-151.707 157.538-83.761 0-151.707-70.558-151.707-157.538z" />
<glyph unicode="&#xe60c;" glyph-name="user" d="M547.214 960l-48.746-0.049c-87.401-5.557-136.049-45.918-161.543-78.773-40.313-52.012-47.040-114.894-41.629-144.433 7.702-43.091 10.822-98.612 8.53-109.093-0.439-1.804-1.121-3.461-1.804-5.070-5.898-15.599-10.139-32.172-1.072-77.798 10.237-51.67 26.176-78.822 37.924-92.568 4.192-31.977 15.842-67.659 25.786-88.863 7.263-15.55 10.578-36.608 10.578-66.489 0-27.688-0.975-28.077-7.214-30.027-46.162-13.795-150.38-56.935-256.305-128.494-35.292-23.837-36.316-202.343 3.802-202.343h818.098c37.339 0 40.118 175.143 0.877 200.686-112.261 73.216-217.454 117.477-262.788 131.077-6.581 2.096-7.604 2.389-7.604 30.125 0 22.91 9.359 45.918 18.377 65.465 9.847 21.204 21.497 56.886 25.689 88.863 11.796 13.746 27.834 40.898 38.022 92.568 9.018 45.626 4.826 62.199-1.17 77.798-0.634 1.609-1.267 3.266-1.706 4.875-2.291 10.675 0.829 66.197 8.53 109.288 5.313 29.54-1.414 92.422-41.58 144.433-25.445 32.855-74.142 73.216-163.054 78.822z" />
<glyph unicode="&#xe60d;" glyph-name="dpad-up" d="M955.698 192l68.302 69.235-512 421.432-512-421.432 68.302-69.235 443.698 352.148 443.698-352.148z" />
<glyph unicode="&#xe60e;" glyph-name="dpad-left" d="M757.333 891.698l-69.235 68.302-421.432-512 421.432-512 69.235 68.302-352.148 443.698 352.148 443.698z" />
<glyph unicode="&#xe620;" glyph-name="powered-by-matterport" horiz-adv-x="3918" d="M1672.587 488.631c13.633 0 25.626-2.081 35.972-6.306 10.284-4.225 18.915-10.207 25.969-17.899 6.997-7.753 12.117-16.83 15.442-27.292 3.386-10.462 5.002-21.937 5.002-34.48v-156.441c0-33.095-16.577-49.608-49.736-49.608h-147.711c-25.089 0-43.499 7.561-55.268 22.626-11.831 15.066-17.749 37.823-17.749 68.265 0 27.609 5.918 49.608 17.749 66.183 11.768 16.513 30.178 24.77 55.268 24.77h132.75v18.787c0 27.858-13.639 41.848-40.911 41.848h-143.277v49.546h166.502zM1582.42 328.842c-11.070 0-18.978-3.398-23.786-10.207-4.777-6.809-7.184-17.141-7.184-31.138 0-13.929 2.407-24.329 7.184-31.138 4.808-6.747 12.716-10.145 23.786-10.145h91.24c11.107 0 16.614 5.542 16.614 16.513v66.115h-107.854zM1944.628 197.363c-16.577 0-31.513 1.572-44.828 4.728-13.221 3.026-24.584 8.381-33.976 16.010-9.43 7.499-16.608 17.265-21.578 29.367-4.995 12.171-7.465 27.236-7.465 45.259v147.053h-40.369v49.602h40.369v93.668h64.697v-93.668h83.519v-49.602h-83.519v-133.876c0-22.061 5.725-37.381 17.15-46.017 11.419-8.636 28.22-12.922 50.36-12.922h16.009v-49.602h-40.369zM2175.135 196.164c-16.614 0-31.544 1.578-44.834 4.666-13.253 3.15-24.609 8.443-33.976 16.010-9.423 7.561-16.639 17.333-21.572 29.436-5.002 12.164-7.471 27.23-7.471 45.191v147.115h-40.394v49.608h40.394v93.662h64.703v-93.662h83.55v-49.608h-83.55v-133.876c0-22.061 5.725-37.444 17.144-46.011 11.45-8.642 28.22-12.922 50.303-12.922h16.103v-49.608h-40.4zM2366.158 196.792c-23.287 0-41.922 3.218-56.128 9.586-14.113 6.368-25.083 15.817-32.897 28.236-7.789 12.351-13.097 27.609-15.791 45.7-2.719 18.091-4.047 38.823-4.047 62.207 0 28.808 2.594 52.758 7.845 71.731 5.282 18.973 13.608 34.101 25.089 45.446 11.388 11.344 25.844 19.29 43.244 23.825 17.431 4.604 38.473 6.871 63.144 6.871 20.343 0 39.009-1.64 56.097-4.92 17.051-3.274 31.663-9.263 43.842-17.837 12.117-8.567 21.647-20.228 28.538-35.039 6.898-14.755 10.378-33.853 10.378-57.237 0-16.451-3.349-29.69-10.091-39.705-6.742-10.027-18.223-15.066-34.55-15.066h-167.668c0-10.972 0.599-20.993 1.865-30.131 1.297-9.139 4.079-16.954 8.444-23.577 4.403-6.548 10.602-11.655 18.791-15.314 8.17-3.653 19.109-5.486 32.935-5.486h141.038v-49.291h-160.078zM2455.464 369.876c6.137 0 10.059 1.827 11.644 5.486 1.646 3.653 2.47 7.499 2.47 11.475 0 9.512-1.996 17.712-5.981 24.708-4.023 6.865-9.367 12.543-16.040 16.954-6.71 4.349-14.556 7.561-23.443 9.58-8.862 2.019-18.036 3.026-27.497 3.026-27.204 0-46.281-5.672-57.132-17.016-10.883-11.282-16.321-29.373-16.321-54.212h132.301zM2694.253 488.003c-39.477 0-69.057-8.58-88.739-25.658-19.738-17.079-29.642-45.259-29.642-84.523v-181.844h64.728v164.759c0 26.099 5.189 45.514 15.504 58.368 10.278 12.86 28.538 19.284 54.763 19.284h53.752v49.614h-70.366zM2958.68 488.19c23.561 0 43.057-3.535 58.336-10.468 15.311-6.995 27.553-16.824 36.826-29.498 9.174-12.668 15.622-27.92 19.327-45.694 3.636-17.837 5.538-37.754 5.538-59.815s-1.902-42.041-5.538-60.070c-3.704-18.029-10.153-33.405-19.327-46.266-9.274-12.86-21.516-22.819-36.826-29.752-15.279-6.995-34.775-10.462-58.336-10.462h-87.417v-93.668h-64.697v336.086c0 33.026 16.608 49.608 49.767 49.608h102.347zM2871.263 245.772h71.339c15.504 0 27.877 2.454 37.082 7.437 9.236 4.914 16.227 11.723 21.036 20.359s7.814 18.843 9.111 30.572c1.297 11.785 1.933 24.577 1.933 38.574 0 13.612-0.636 26.217-1.933 38.003-1.297 11.792-4.303 21.937-9.111 30.572s-11.799 15.383-21.036 20.172c-9.205 4.728-21.578 7.12-37.082 7.12h-54.763c-11.039 0-16.577-4.79-16.577-14.308v-178.502zM3273.716 491.215c25.719 0 48.183-2.205 67.379-6.747 19.177-4.473 35.118-12.351 47.778-23.509 12.685-11.22 22.239-26.161 28.569-44.942 6.355-18.781 9.486-42.42 9.486-70.911 0-28.932-3.131-52.696-9.486-71.476-6.33-18.719-15.884-33.846-28.569-45.197-12.66-11.344-28.6-19.284-47.778-23.819-19.196-4.541-41.66-6.747-67.379-6.747-25.757 0-48.183 2.205-67.423 6.747-19.171 4.535-35.118 12.475-47.771 23.819-12.716 11.351-22.202 26.478-28.563 45.197-6.33 18.781-9.492 42.544-9.492 71.476 0 28.491 3.162 52.13 9.492 70.911 6.361 18.781 15.847 33.722 28.563 44.942 12.654 11.158 28.6 19.036 47.771 23.509 19.24 4.541 41.666 6.747 67.423 6.747v0zM3186.236 345.106c0-17.712 1.515-32.778 4.621-45.191 3.037-12.481 7.97-22.695 14.649-30.572 6.735-8.002 15.691-13.805 26.917-17.395 11.232-3.591 24.965-5.424 41.292-5.424 16.321 0 30.116 1.833 41.248 5.424 11.269 3.591 20.219 9.394 26.929 17.395 6.673 7.878 11.612 18.091 14.712 30.572 3.031 12.413 4.615 27.479 4.615 45.191 0 17.65-1.584 32.647-4.615 44.942-3.1 12.226-8.039 22.254-14.712 30.007-6.71 7.816-15.66 13.488-26.929 17.079-11.132 3.591-24.927 5.424-41.248 5.424-16.327 0-30.060-1.833-41.292-5.424-11.226-3.591-20.181-9.263-26.917-17.079-6.679-7.753-11.612-17.781-14.649-30.007-3.106-12.295-4.621-27.292-4.621-44.942v0zM3851.083 196.164c-16.639 0-31.544 1.578-44.797 4.666-13.321 3.15-24.647 8.443-34.076 16.010-9.367 7.561-16.577 17.333-21.541 29.436-5.002 12.164-7.502 27.23-7.502 45.191v147.115h-40.369v49.608h40.369v93.662h64.728v-93.662h83.494v-49.608h-83.494v-133.876c0-22.061 5.694-37.444 17.113-46.011 11.456-8.642 28.289-12.922 50.341-12.922h16.040v-49.608h-40.306zM3590.329 488.19c-39.477 0-69.057-8.573-88.77-25.652-19.738-17.085-29.611-45.259-29.611-84.529v-181.844h64.76v164.766c0 26.093 5.158 45.508 15.435 58.362 10.315 12.86 28.6 19.29 54.763 19.29h53.721v49.608h-70.298zM1434.11 436.376c-5.725 12.86-13.539 23.13-23.505 30.889-9.966 7.685-21.959 13.102-35.941 16.258-14.013 3.088-29.324 4.666-45.938 4.666h-303.642v-292.025h64.728v242.417h111.739v-242.417h64.697v242.417h50.335c22.146 0 37.868-5.672 47.291-17.079 9.367-11.413 14.113-28.112 14.113-50.173v-175.166h64.697v192.312c0 19.098-2.844 35.039-8.575 47.9zM322.427 393.556l212.059 121.644v162.049l-128.552 73.807c-7.278 4.18-19.259 4.18-26.579 0l-327.26-187.773c-7.319-4.172-13.31-14.442-13.31-22.869v-375.456c0-8.353 5.991-18.623 13.31-22.877l270.332-155.038v406.513zM733.194 563.282l-127.925 73.396v-162.057l-20.299-11.685-191.801-109.958v-401.674c4.646 0.082 9.25 1.086 12.765 3.086l327.26 187.691c7.319 4.254 13.302 14.525 13.302 22.877v375.456c0 8.427-5.982 18.697-13.302 22.869zM2059.8 936.82h63.26c13.372 0 24.635-1.491 33.79-4.475s16.509-7.149 22.064-12.498c5.555-5.349 9.566-11.623 12.035-18.824s3.703-15.018 3.703-23.453c0-8.435-1.234-16.252-3.703-23.453s-6.48-13.475-12.035-18.824c-5.555-5.349-12.909-9.515-22.064-12.498s-20.418-4.475-33.79-4.475h-48.448v-87.33h-14.812v205.828zM2127.38 832.209c17.281 0 30.139 3.857 38.573 11.572s12.652 18.978 12.652 33.79c0 14.812-4.217 26.076-12.652 33.79s-21.292 11.572-38.573 11.572h-52.768v-90.725h52.768zM2328.27 726.055c-14.812 0-28.441 2.777-40.888 8.332s-23.195 13.166-32.247 22.835c-9.052 9.669-16.149 21.035-21.293 34.099s-7.715 27.207-7.715 42.431c0 15.018 2.572 29.11 7.715 42.276s12.241 24.635 21.293 34.407c9.052 9.772 19.801 17.435 32.247 22.99s26.076 8.332 40.888 8.332c14.812 0 28.441-2.777 40.888-8.332s23.195-13.218 32.247-22.99c9.052-9.772 16.149-21.241 21.293-34.407s7.715-27.258 7.715-42.276c0-15.224-2.572-29.367-7.715-42.431s-12.241-24.43-21.293-34.099c-9.052-9.669-19.801-17.281-32.247-22.835s-26.076-8.332-40.888-8.332v0zM2328.27 739.941c12.961 0 24.79 2.417 35.488 7.252s19.801 11.521 27.31 20.058c7.509 8.538 13.321 18.515 17.435 29.933s6.172 23.607 6.172 36.568c0 12.961-2.057 25.201-6.172 36.722s-9.926 21.498-17.435 29.933c-7.509 8.435-16.612 15.121-27.31 20.058s-22.527 7.406-35.488 7.406c-12.961 0-24.79-2.469-35.488-7.406s-19.801-11.623-27.31-20.058c-7.509-8.435-13.321-18.412-17.435-29.933s-6.172-23.761-6.172-36.722c0-12.961 2.057-25.15 6.172-36.568s9.926-21.395 17.435-29.933c7.509-8.538 16.612-15.224 27.31-20.058s22.527-7.252 35.488-7.252v0zM2455.408 936.82h16.664l49.374-184.844 52.151 178.672h18.207l49.683-177.438 49.065 183.609h16.047l-57.706-205.828h-16.355l-50.3 177.746-52.768-177.746h-17.281l-56.78 205.828zM2742.394 936.82h123.435v-13.886h-108.623v-77.764h84.861v-13.886h-84.861v-86.404h116.646v-13.886h-131.458v205.828zM2914.277 936.82h62.026c13.372 0 24.687-1.44 33.945-4.32s16.767-6.943 22.527-12.189c5.76-5.246 9.926-11.418 12.498-18.515s3.857-14.864 3.857-23.298c0-13.372-3.446-25.253-10.338-35.642s-17.847-17.332-32.865-20.83l49.065-91.033h-16.972l-47.831 89.182h-61.1v-89.182h-14.812v205.828zM2982.475 834.060c33.945 0 50.917 14.812 50.917 44.437 0 14.812-4.474 25.921-13.424 33.327s-22.064 11.109-39.345 11.109h-51.534v-88.873h53.386zM3098.195 936.82h123.435v-13.886h-108.623v-77.764h84.861v-13.886h-84.861v-86.404h116.646v-13.886h-131.458v205.828zM3270.078 936.82h56.163c16.87 0 32.35-2.006 46.442-6.017s26.23-10.183 36.413-18.515c10.183-8.332 18.104-18.978 23.761-31.939s8.486-28.39 8.486-46.288c0-17.898-2.829-33.327-8.486-46.288s-13.578-23.658-23.761-32.093c-10.183-8.435-22.321-14.658-36.413-18.67s-29.573-6.017-46.442-6.017h-56.163v205.828zM3329.327 744.879c14.607 0 27.824 1.8 39.653 5.4s21.961 9.103 30.396 16.509c8.435 7.406 14.915 16.715 19.441 27.927s6.789 24.327 6.789 39.345c0 15.018-2.314 28.081-6.943 39.191s-11.212 20.367-19.75 27.773c-8.538 7.406-18.875 12.909-31.013 16.509s-25.818 5.4-41.042 5.4h-41.968v-178.055h44.437zM3541.017 936.82h68.198c10.081 0 18.721-1.389 25.921-4.166s13.063-6.48 17.589-11.109c4.526-4.629 7.818-9.978 9.875-16.047s3.086-12.498 3.086-19.287c0-5.76-0.926-11.212-2.777-16.355s-4.372-9.823-7.56-14.041c-3.189-4.217-7.046-7.766-11.572-10.646s-9.566-4.835-15.121-5.863c5.349-0.823 10.903-2.263 16.664-4.32s11.006-5.092 15.738-9.103c4.732-4.012 8.64-9.206 11.726-15.584s4.629-14.298 4.629-23.761c0-11.109-2.057-20.212-6.172-27.31s-9.72-12.755-16.818-16.972c-7.098-4.217-15.326-7.149-24.687-8.795s-19.287-2.469-29.779-2.469h-58.94v205.828zM3600.883 845.169c5.555 0 11.263 0.72 17.127 2.16s11.161 3.806 15.892 7.098c4.732 3.292 8.64 7.457 11.726 12.498s4.629 11.161 4.629 18.361c0 8.229-1.491 14.812-4.475 19.75s-6.84 8.743-11.572 11.418c-4.732 2.674-10.029 4.423-15.892 5.246s-11.675 1.234-17.435 1.234h-45.054v-77.764h45.054zM3596.254 744.879c7.818 0 15.635 0.36 23.453 1.080s14.864 2.469 21.138 5.246c6.275 2.777 11.366 6.943 15.275 12.498s5.863 13.166 5.863 22.835c0 9.258-1.903 16.818-5.709 22.681s-8.64 10.389-14.504 13.578c-5.863 3.189-12.395 5.4-19.595 6.635s-14.195 1.852-20.984 1.852h-45.362v-86.404h40.425zM3761.966 825.42l-70.975 111.4h17.898l60.792-96.896 60.792 96.896h17.281l-70.975-111.4v-94.428h-14.812v94.428z" />
<glyph unicode="&#xe623;" glyph-name="floorplan" d="M431.104 960c-12.288 0-21.504-9.216-21.504-21.504v-366.592c0-11.264-9.216-21.504-21.504-21.504h-366.592c-12.288 0-21.504-9.216-21.504-21.504v-571.392c0-11.264 9.216-21.504 21.504-21.504h468.992c11.264 0 30.72 0 43.008 0h468.992c11.264 0 21.504 9.216 21.504 21.504v468.992c0 11.264 0 30.72 0 43.008v468.992c0 11.264-9.216 21.504-21.504 21.504h-571.392zM959.488 20.992c0-11.264-9.216-21.504-21.504-21.504h-404.48c-11.264 0-23.552 0-26.624 0s-5.12 9.216-5.12 21.504v192.512c0 11.264-9.216 21.504-21.504 21.504h-21.504c-11.264 0-21.504-9.216-21.504-21.504v-191.488c0-11.264-9.216-21.504-21.504-21.504h-330.752c-11.264 0-21.504 9.216-21.504 21.504v443.392c0 11.264 9.216 21.504 21.504 21.504h303.104c11.264 0 30.72 0 43.008 0h21.504c11.264 0 21.504 9.216 21.504 21.504v21.504c0 11.264 0 30.72 0 43.008v302.080c0 11.264 9.216 21.504 21.504 21.504h443.392c11.264 0 21.504-9.216 21.504-21.504v-309.248c0-11.264-9.216-21.504-21.504-21.504h-192.512c-11.264 0-21.504-9.216-21.504-21.504v-21.504c0-11.264 9.216-21.504 21.504-21.504h191.488c11.264 0 21.504-7.168 21.504-16.384s0-25.6 0-36.864v-405.504z" />
<glyph unicode="&#xe900;" glyph-name="ico-share" d="M931.355 887.661c-6.875 8.574-15.086 16.79-24.634 24.649-32.846 31.793-73.139 47.69-120.88 47.69-47.359 0-88.607-15.897-123.744-47.69-33.991-32.151-50.987-70.732-50.987-115.743 0-13.218 1.719-25.899 5.156-38.045l-281.862-175.221c-27.499 18.219-59.581 27.328-96.246 27.328-46.977 0-88.225-15.718-123.744-47.154-33.61-32.151-50.414-70.732-50.414-115.743 0-43.939 16.805-81.806 50.414-113.599 35.519-32.865 76.767-49.298 123.744-49.298 36.283 0 68.174 9.288 95.673 27.864l282.435-176.293c-3.437-12.146-5.156-24.649-5.156-37.509 0-44.654 16.996-82.52 50.987-113.599 35.137-32.865 76.385-49.298 123.744-49.298 47.741 0 88.034 16.433 120.88 49.298 9.548 7.859 17.76 15.718 24.634 23.577 19.096 26.078 28.645 56.085 28.645 90.022 0 33.58-9.548 63.766-28.645 90.558-6.875 8.931-15.086 17.326-24.634 25.185-32.846 31.436-73.139 47.154-120.88 47.154-37.811 0-71.993-10.181-102.547-30.543l-276.706 172.542c3.819 13.932 5.729 28.578 5.729 43.939s-1.719 30.007-5.156 43.939l277.852 172.542c29.79-20.362 63.4-30.543 100.829-30.543 47.741 0 88.034 16.611 120.88 49.834 9.548 7.502 17.76 15.182 24.634 23.041 19.096 26.435 28.645 56.442 28.645 90.022 0 33.937-9.548 64.301-28.645 91.094v0z" />
<glyph unicode="&#xe901;" glyph-name="webvr" d="M944.9 686.084c-21.377 22.594-51.572 36.66-85.057 36.66-0.123 0-0.246 0-0.376 0h-694.957c-33.467-0.009-63.65-14.073-84.971-36.608-22.011-22.868-35.54-53.942-35.54-88.175 0-0.147 0-0.286 0.001-0.433v-373.595c-0.001-0.241-0.002-0.532-0.002-0.817 0-34.036 13.373-64.942 35.148-87.761 21.331-22.546 51.526-36.613 85.011-36.613 0.123 0 0.246 0 0.376 0h166.897c0.387-0.004 0.846-0.006 1.298-0.006 23.087 0 44.613 6.684 62.745 18.226 18.286 11.69 33.266 28.043 43.276 47.389l45.561 90.39c5.030 10.216 15.356 17.127 27.297 17.16h0.003c11.944-0.033 22.27-6.944 27.221-16.979l47.269-91.831c10.27-19.15 24.809-34.814 42.407-46.112 17.971-11.437 39.245-18.104 62.077-18.238h166.956c32.893 0.466 62.441 14.436 83.411 36.608 21.778 22.823 35.151 53.736 35.151 87.765 0 0.285-0.001 0.576-0.002 0.86v373.577c0.065 1.487 0.094 3.236 0.094 4.991 0 32.050-11.857 61.323-31.426 83.688zM299.060 315.977c-51.834 0.661-93.6 42.832-93.6 94.764 0 52.34 42.43 94.77 94.77 94.77 52.338 0 94.767-42.427 94.77-94.764 0-0.002 0-0.004 0-0.006 0-52.34-42.43-94.77-94.77-94.77-0.415 0-0.822 0.002-1.235 0.006l0.065-0.001zM725.33 315.977c-0.116 0-0.249-0.001-0.39-0.001-52.34 0-94.77 42.43-94.77 94.77s42.43 94.77 94.77 94.77c52.339 0 94.77-42.43 94.77-94.769v0c0-52.34-42.43-94.77-94.77-94.77v0z" />
<glyph unicode="&#xe902;" glyph-name="gallery" d="M216.615 206.4h664.615l-147.692 404.8-184.615-257.6-147.692 110.4zM124.308 622.7c0-44.494 36.127-80.5 80.769-80.5s80.769 36.006 80.769 80.5c0 44.494-36.124 80.5-80.769 80.5s-80.769-36.006-80.769-80.5v0zM32 817.298v-706.596c0-8.339 6.409-14.702 14.316-14.702h931.369c8.185 0 14.316 6.582 14.316 14.702v706.596c0 8.339-6.409 14.702-14.316 14.702h-931.369c-8.185 0-14.316-6.582-14.316-14.702zM80 784h864v-640h-864v640z" />
<glyph unicode="&#xe903;" glyph-name="mt-link" d="M416 800h-288c-63.437 0-128-63.876-128-128v-608c0-63.060 63.876-128 128-128h608c63.060 0 128 63.957 128 128v288h-160v-288h-576v576h288v160zM662.842 815.016c-40.036 0-72.492 32.456-72.492 72.492s32.456 72.492 72.492 72.492h361.158v-361.158c0-40.036-32.456-72.492-72.492-72.492s-72.492 32.456-72.492 72.492v113.655l-387.489-383.622c-28.31-28.31-74.209-28.31-102.519 0s-28.31 74.209 0 102.519l387.489 383.622h-113.655z" />
<glyph unicode="&#xe904;" glyph-name="close-thin" d="M106.261 87.484l66.683-55.484 405.831 416-405.831 416-66.683-55.484 339.117-360.516zM917.739 808.516l-66.683 55.484-405.831-416 405.831-416 66.683 55.484-339.117 360.516z" />
<glyph unicode="&#xe905;" glyph-name="plus" d="M453.486 506.514h-351.086v-117.029h351.086v-351.086h117.029v351.086h351.086v117.029h-351.086v351.086h-117.029v-351.086z" />
<glyph unicode="&#xe906;" glyph-name="minus" d="M102.4 506.514h819.2v-117.029h-819.2v117.029z" />
<glyph unicode="&#xe907;" glyph-name="ico-email" d="M506.961 401.329l506.91 439.144v2.243c0 17.645-14.332 31.95-32.018 31.95h-949.836c-17.683 0-32.018-13.908-32.018-31.95v-2.243l506.961-439.144zM506.961 278.384l-506.961 439.162v-662.814c0-17.476 14.332-31.644 32.018-31.644h949.836c17.683 0 32.018 14.505 32.018 31.644v662.814l-506.91-439.162z" />
<glyph unicode="&#xe908;" glyph-name="find" d="M1002.885 96.349c25.324-30.302 27.877-55.554 7.618-80.806l-60.778-60.604c-30.389-25.252-60.778-25.252-88.655 0l-245.666 247.467c-63.331-37.898-131.687-55.554-202.595-55.554-111.427 0-207.66 40.403-288.698 123.754-83.591 80.806-124.11 176.762-124.11 287.87s40.519 204.56 116.492 282.82c78.526 78.301 172.206 118.704 283.633 118.704s207.66-40.403 291.25-123.754c81.038-80.806 124.11-176.762 124.11-287.87 0-75.755-20.259-146.46-60.778-209.61l248.179-242.417zM121.597 558.477c0-75.755 30.389-143.955 88.655-202.014s126.622-88.401 202.595-88.401c75.973 0 141.816 27.797 195.018 83.351 55.714 53.049 83.591 118.704 83.591 196.964 0 75.755-30.389 141.41-88.655 199.509s-126.622 88.401-202.595 88.401c-75.973 0-141.816-27.797-195.018-83.351-55.714-53.049-83.591-118.704-83.591-194.459v0z" />
</font>
</defs>
</svg>
