<?xml version="1.0" encoding="UTF-8" standalone="no"?>
<svg width="16px" height="16px" viewBox="0 0 41 40" version="1.1" xmlns="http://www.w3.org/2000/svg" xmlns:xlink="http://www.w3.org/1999/xlink">
    <!-- Generator: Sketch 43 (38999) - http://www.bohemiancoding.com/sketch -->
    <title>cursor-ie</title>
    <desc>Created with Sketch.</desc>
    <defs></defs>
    <g id="Symbols" stroke="none" stroke-width="1" fill="none" fill-rule="evenodd">
        <g id="cursor-ie">
            <g id="Page-1">
                <path d="M24.062,24.031 L24.062,24.031 C25.242,22.852 27.379,23.074 28.332,24.031 L39.188,34.887 C40.367,36.066 40.367,37.977 39.188,39.156 C38.008,40.336 35.871,40.113 34.918,39.156 L24.062,28.301 C22.883,27.121 22.883,25.211 24.062,24.031 Z" id="Fill-1" fill="#000000"></path>
                <path d="M15.727,4.176 L15.727,4.176 C11.359,4.176 7.422,6.805 5.75,10.84 C4.078,14.875 5.004,19.52 8.09,22.609 C11.18,25.695 15.824,26.621 19.859,24.949 C23.895,23.277 26.523,19.34 26.523,14.973 C26.516,9.012 21.684,4.184 15.727,4.176 Z" id="Path" fill="#FFFFFF"></path>
                <path d="M15.727,29.77 L15.727,29.77 C9.742,29.77 4.348,26.164 2.055,20.637 C-0.234,15.105 1.031,8.742 5.262,4.508 C9.496,0.277 15.859,-0.988 21.391,1.301 C26.918,3.59 30.523,8.988 30.523,14.973 C30.516,23.141 23.895,29.762 15.727,29.77 Z M15.727,4.176 L15.727,4.176 C11.359,4.176 7.422,6.805 5.75,10.84 C4.078,14.875 5.004,19.52 8.09,22.609 C11.18,25.695 15.824,26.621 19.859,24.949 C23.895,23.277 26.523,19.34 26.523,14.973 C26.516,9.012 21.684,4.184 15.727,4.176 Z" id="Fill-2" fill="#000000"></path>
                <polygon id="Fill-3" fill="#000000" points="21.75 13.75 17.5 13.75 17.5 9.5 13.75 9.5 13.75 13.75 9.5 13.75 9.5 17.5 13.75 17.5 13.75 21.75 17.5 21.75 17.5 17.5 21.75 17.5"></polygon>
            </g>
        </g>
    </g>
</svg>
